{
  "accessors": [
    {
      "bufferView": 0,
      "componentType": 5126,
      "count": 1413,
      "max": [
        9.851264953613281,
        9.881403923034668,
        42.32722854614258
      ],
      "min": [
        -9.851269721984863,
        -9.881389617919922,
        -42.327301025390625
      ],
      "type": "VEC3"
    },
    {
      "bufferView": 1,
      "componentType": 5125,
      "count": 2440,
      "type": "SCALAR"
    },
    {
      "bufferView": 2,
      "componentType": 5126,
      "count": 1413,
      "type": "VEC3"
    },
    {
      "bufferView": 3,
      "componentType": 5126,
      "count": 1413,
      "type": "VEC4"
    },
    {
      "bufferView": 4,
      "componentType": 5126,
      "count": 1413,
      "type": "VEC2"
    },
    {
      "bufferView": 5,
      "componentType": 5126,
      "count": 2669,
      "max": [
        17.50477409362793,
        3.1819567680358887,
        86.26897430419922
      ],
      "min": [
        -17.50480079650879,
        -42.73870086669922,
        -5.566110134124756
      ],
      "type": "VEC3"
    },
    {
      "bufferView": 6,
      "componentType": 5125,
      "count": 4363,
      "type": "SCALAR"
    },
    {
      "bufferView": 7,
      "componentType": 5126,
      "count": 2669,
      "type": "VEC3"
    },
    {
      "bufferView": 8,
      "componentType": 5126,
      "count": 2669,
      "type": "VEC4"
    },
    {
      "bufferView": 9,
      "componentType": 5126,
      "count": 2669,
      "type": "VEC2"
    },
    {
      "bufferView": 10,
      "componentType": 5126,
      "count": 1089,
      "max": [
        8.018265724182129,
        8.207243919372559,
        8.50122356414795
      ],
      "min": [
        -8.01826000213623,
        -8.207240104675293,
        -8.501219749450684
      ],
      "type": "VEC3"
    },
    {
      "bufferView": 11,
      "componentType": 5125,
      "count": 3401,
      "type": "SCALAR"
    },
    {
      "bufferView": 12,
      "componentType": 5126,
      "count": 1089,
      "type": "VEC3"
    },
    {
      "bufferView": 13,
      "componentType": 5126,
      "count": 1089,
      "type": "VEC4"
    },
    {
      "bufferView": 14,
      "componentType": 5126,
      "count": 1089,
      "type": "VEC2"
    },
    {
      "bufferView": 15,
      "componentType": 5126,
      "count": 182,
      "max": [
        9.857630729675293,
        9.644553184509277,
        35.36156463623047
      ],
      "min": [
        -9.857620239257813,
        -10.6003999710083,
        -9.839059829711914
      ],
      "type": "VEC3"
    },
    {
      "bufferView": 16,
      "componentType": 5125,
      "count": 438,
      "type": "SCALAR"
    },
    {
      "bufferView": 17,
      "componentType": 5126,
      "count": 182,
      "type": "VEC3"
    },
    {
      "bufferView": 18,
      "componentType": 5126,
      "count": 182,
      "max": [
        10.437287330627441,
        10.211665153503418,
        37.44084930419922
      ],
      "min": [
        -10.437199592590332,
        -11.223699569702148,
        -10.41759967803955
      ],
      "type": "VEC3"
    },
    {
      "bufferView": 19,
      "componentType": 5125,
      "count": 438,
      "type": "SCALAR"
    },
    {
      "bufferView": 20,
      "componentType": 5126,
      "count": 182,
      "type": "VEC3"
    },
    {
      "bufferView": 21,
      "componentType": 5126,
      "count": 56,
      "max": [
        15.225530624389648,
        9.460887908935547,
        16.65975570678711
      ],
      "min": [
        -9.805390357971191,
        -28.922000885009766,
        -8.4127197265625
      ],
      "type": "VEC3"
    },
    {
      "bufferView": 22,
      "componentType": 5125,
      "count": 82,
      "type": "SCALAR"
    },
    {
      "bufferView": 23,
      "componentType": 5126,
      "count": 56,
      "type": "VEC3"
    },
    {
      "bufferView": 24,
      "componentType": 5126,
      "count": 56,
      "type": "VEC4"
    },
    {
      "bufferView": 25,
      "componentType": 5126,
      "count": 56,
      "type": "VEC2"
    }
  ],
  "asset": {
    "version": "2.0"
  },
  "bufferViews": [
    {
      "buffer": 0,
      "byteLength": 16956,
      "target": 34962
    },
    {
      "buffer": 1,
      "byteLength": 9760,
      "target": 34963
    },
    {
      "buffer": 2,
      "byteLength": 16956,
      "target": 34962
    },
    {
      "buffer": 3,
      "byteLength": 22608,
      "target": 34962
    },
    {
      "buffer": 4,
      "byteLength": 11304,
      "target": 34962
    },
    {
      "buffer": 5,
      "byteLength": 32028,
      "target": 34962
    },
    {
      "buffer": 6,
      "byteLength": 17452,
      "target": 34963
    },
    {
      "buffer": 7,
      "byteLength": 32028,
      "target": 34962
    },
    {
      "buffer": 8,
      "byteLength": 42704,
      "target": 34962
    },
    {
      "buffer": 9,
      "byteLength": 21352,
      "target": 34962
    },
    {
      "buffer": 10,
      "byteLength": 13068,
      "target": 34962
    },
    {
      "buffer": 11,
      "byteLength": 13604,
      "target": 34963
    },
    {
      "buffer": 12,
      "byteLength": 13068,
      "target": 34962
    },
    {
      "buffer": 13,
      "byteLength": 17424,
      "target": 34962
    },
    {
      "buffer": 14,
      "byteLength": 8712,
      "target": 34962
    },
    {
      "buffer": 15,
      "byteLength": 2184,
      "target": 34962
    },
    {
      "buffer": 16,
      "byteLength": 1752,
      "target": 34963
    },
    {
      "buffer": 17,
      "byteLength": 2184,
      "target": 34962
    },
    {
      "buffer": 18,
      "byteLength": 2184,
      "target": 34962
    },
    {
      "buffer": 19,
      "byteLength": 1752,
      "target": 34963
    },
    {
      "buffer": 20,
      "byteLength": 2184,
      "target": 34962
    },
    {
      "buffer": 21,
      "byteLength": 672,
      "target": 34962
    },
    {
      "buffer": 22,
      "byteLength": 328,
      "target": 34963
    },
    {
      "buffer": 23,
      "byteLength": 672,
      "target": 34962
    },
    {
      "buffer": 24,
      "byteLength": 896,
      "target": 34962
    },
    {
      "buffer": 25,
      "byteLength": 448,
      "target": 34962
    }
  ],
  "buffers": [
    {
      "byteLength": 16956,
      "uri": "data:application/octet-stream;base64,"
    },
    {
      "byteLength": 9760,
      "uri": "data:application/octet-stream;base64,"
    },
    {
      "byteLength": 16956,
      "uri": "data:application/octet-stream;base64,"
    },
    {
      "byteLength": 22608,
      "uri": "data:application/octet-stream;base64,"
    },
    {
      "byteLength": 11304,
      "uri": "data:application/octet-stream;base64,"
    },
    {
      "byteLength": 32028,
      "uri": "data:application/octet-stream;base64,"
    },
    {
      "byteLength": 17452,
      "uri": "data:application/octet-stream;base64,"
    },
    {
      "byteLength": 32028,
      "uri": "data:application/octet-stream;base64,"
    },
    {
      "byteLength": 42704,
      "uri": "data:application/octet-stream;base64,"
    },
    {
      "byteLength": 21352,
      "uri": "data:application/octet-stream;base64,"
    },
    {
      "byteLength": 13068,
      "uri": "data:application/octet-stream;base64,"
    },
    {
      "byteLength": 13604,
      "uri": "data:application/octet-stream;base64,"
    },
    {
      "byteLength": 13068,
      "uri": "data:application/octet-stream;base64,"
    },
    {
      "byteLength": 17424,
      "uri": "data:application/octet-stream;base64,"
    },
    {
      "byteLength": 8712,
      "uri": "data:application/octet-stream;base64,"
    },
    {
      "byteLength": 2184,
      "uri": "data:application/octet-stream;base64,"
    },
    {
      "byteLength": 1752,
      "uri": "data:application/octet-stream;base64,"
    },
    {
      "byteLength": 2184,
      "uri": "data:application/octet-stream;base64,"
    },
    {
      "byteLength": 2184,
      "uri": "data:application/octet-stream;base64,"
    },
    {
      "byteLength": 1752,
      "uri": "data:application/octet-stream;base64,"
    },
    {
      "byteLength": 2184,
      "uri": "data:application/octet-stream;base64,"
    },
    {
      "byteLength": 672,
      "uri": "data:application/octet-stream;base64,"
    },
    {
      "byteLength": 328,
      "uri": "data:application/octet-stream;base64,"
    },
    {
      "byteLength": 672,
      "uri": "data:application/octet-stream;base64,"
    },
    {
      "byteLength": 896,
      "uri": "data:application/octet-stream;base64,"
    },
    {
      "byteLength": 448,
      "uri": "data:application/octet-stream;base64,"
    }
  ],
  "materials": [
    {
      "doubleSided": true,
      "name": "flame1",
      "pbrMetallicRoughness": {
        "baseColorFactor": [
          1.0,
          1.0,
          1.0,
          1.0
        ]
      }
    }
,   {
      "doubleSided": true,
      "name": "M_Coal",
      "occlusionTexture" : {
      "index" : 3
      },
      "emissiveFactor" : [1.0,1.0,1.0],
      "emissiveTexture" : {
      "index" : 1
      },
      "pbrMetallicRoughness": {
        "baseColorTexture" : {"index" : 8},
        "metallicFactor" : 0,
        "metallicRoughnessTexture" : { "index" : 7 },
        "baseColorFactor": [
          1.0,
          1.0,
          1.0,
          1.0
        ]
      }
    }
,   {
      "doubleSided": true,
      "name": "flame2",
      "pbrMetallicRoughness": {
        "baseColorFactor": [
          1.0,
          1.0,
          1.0,
          1.0
        ]
      }
    }
,   {
      "doubleSided": true,
      "name": "M_Torch",
      "normalTexture" : {
      "index" : 0,
      "scale" : 2
      },
      "occlusionTexture" : {
      "index" : 4
      },
      "pbrMetallicRoughness": {
        "baseColorTexture" : {"index" : 6},
        "metallicFactor" : 0,
        "metallicRoughnessTexture" : { "index" : 2 },
        "baseColorFactor": [
          1.0,
          1.0,
          1.0,
          1.0
        ]
      }
    }
  ],
  "images": [
    {
         "uri" : "064301f6cafa43c2818a35bc728f07aa_N_T_Torch_NRM.png"
    },
    {
         "uri" : "13a3981f7a134a5fb1fd2a81fcd05fe6_RGB_T_Coal_E.png"
    },
    {
         "uri" : "3654d7d3118c419c981276dbc64c9ca4_R_T_Torch_R.png"
    },
    {
         "uri" : "3c25917551b54068a08d6e78337fc1ed_R_T_Coal_AO.png"
    },
    {
         "uri" : "89cd5438ed1148caaf41095a33bcc9d8_R_T_Torch_AO.png"
    },
    {
         "uri" : "a15e9d2fe6c149f69c2db0a17ff64d63_R_T_Torch_M.png"
    },
    {
         "uri" : "ba140801a5d04e42baae1e91758fb367_RGB_T_Torch_ALB.png"
    },
    {
         "uri" : "be8800d09e6e45dea264563873f336a8_R_T_Coal_R.png"
    },
    {
         "uri" : "d0cc45c228c54765b0e267ba46b55fde_RGB_T_Coal_ALB.png"
    }
  ],
  "textures": [
    {
         "source" : 0
    },
    {
         "source" : 1
    },
    {
         "source" : 2
    },
    {
         "source" : 3
    },
    {
         "source" : 4
    },
    {
         "source" : 5
    },
    {
         "source" : 6
    },
    {
         "source" : 7
    },
    {
         "source" : 8
    }
  ],
  "meshes": [
    {
      "name": "Holder_M_Torch_0",
      "primitives": [
        {
          "attributes": {
            "NORMAL": 2,
            "POSITION": 0,
            "TANGENT": 3,
            "TEXCOORD_0": 4
          },
          "indices": 1,
          "material": 3,
          "mode": 5
        }
      ]
    },
    {
      "name": "Torch_M_Torch_0",
      "primitives": [
        {
          "attributes": {
            "NORMAL": 7,
            "POSITION": 5,
            "TANGENT": 8,
            "TEXCOORD_0": 9
          },
          "indices": 6,
          "material": 3,
          "mode": 5
        }
      ]
    },
    {
      "name": "Coal_M_Coal_0",
      "primitives": [
        {
          "attributes": {
            "NORMAL": 12,
            "POSITION": 10,
            "TANGENT": 13,
            "TEXCOORD_0": 14
          },
          "indices": 11,
          "material": 1,
          "mode": 5
        }
      ]
    },
    {
      "name": "Flame_flame1_0",
      "primitives": [
        {
          "attributes": {
            "NORMAL": 17,
            "POSITION": 15
          },
          "indices": 16,
          "mode": 5
        }
      ]
    },
    {
      "name": "Flame2_flame2_0",
      "primitives": [
        {
          "attributes": {
            "NORMAL": 20,
            "POSITION": 18
          },
          "indices": 19,
          "mode": 5
        }
      ]
    },
    {
      "name": "Flame3_flame1_0",
      "primitives": [
        {
          "attributes": {
            "NORMAL": 23,
            "POSITION": 21,
            "TANGENT": 24,
            "TEXCOORD_0": 25
          },
          "indices": 22,
          "material": 0,
          "mode": 5
        }
      ]
    }
  ],
  "nodes": [
    {
      "mesh": 0,
      "name": "Holder_M_Torch_0"
    },
    {
      "children": [
        0
      ],
      "name": "Holder",
      "rotation": [
        -0.7071067811865475,
        0.0,
        0.0,
        0.7071067811865476
      ],
      "scale": [
        1.0,
        1.0,
        1.0
      ],
      "translation": [
        0.0,
        0.0,
        0.0
      ]
    },
    {
      "mesh": 1,
      "name": "Torch_M_Torch_0"
    },
    {
      "children": [
        2
      ],
      "name": "Torch",
      "rotation": [
        -0.7071067811865475,
        0.0,
        0.0,
        0.7071067811865476
      ],
      "scale": [
        1.0,
        1.0,
        1.0
      ],
      "translation": [
        0.0,
        -29.31399917602539,
        -3.971829891204834
      ]
    },
    {
      "mesh": 2,
      "name": "Coal_M_Coal_0"
    },
    {
      "children": [
        4
      ],
      "name": "Coal",
      "rotation": [
        -0.7071067811865475,
        0.0,
        0.0,
        0.7071067811865476
      ],
      "scale": [
        1.0,
        1.0,
        1.0
      ],
      "translation": [
        -0.47289299964904785,
        30.428699493408203,
        13.635000228881836
      ]
    },
    {
      "mesh": 3,
      "name": "Flame_flame1_0"
    },
    {
      "children": [
        6
      ],
      "name": "Flame",
      "rotation": [
        -0.7071067811865475,
        0.0,
        0.0,
        0.7071067811865476
      ],
      "scale": [
        1.0,
        1.0,
        1.0
      ],
      "translation": [
        -0.46713900566101074,
        33.88019943237305,
        14.83650016784668
      ]
    },
    {
      "mesh": 4,
      "name": "Flame2_flame2_0"
    },
    {
      "children": [
        8
      ],
      "name": "Flame2",
      "rotation": [
        -0.7071067811865475,
        0.0,
        0.0,
        0.7071067811865476
      ],
      "scale": [
        1.0,
        1.0,
        1.0
      ],
      "translation": [
        -0.46713900566101074,
        33.88019943237305,
        14.53439998626709
      ]
    },
    {
      "mesh": 5,
      "name": "Flame3_flame1_0"
    },
    {
      "children": [
        10
      ],
      "name": "Flame3",
      "rotation": [
        8.14604999999992e-08,
        0.0,
        0.0,
        0.9999999999999967
      ],
      "scale": [
        1.0,
        1.0,
        1.0
      ],
      "translation": [
        -5.690110206604004,
        76.75039672851563,
        15.859299659729004
      ]
    },
    {
      "children": [
        1,
        3,
        5,
        7,
        9,
        11
      ],
      "name": "RootNode"
    },
    {
      "children": [
        12
      ],
      "name": "0ed97c8d821545619dccdb206b774f77.fbx",
      "rotation": [
        1.1102230246251565e-16,
        0.0,
        0.0,
        1.0
      ],
      "scale": [
        0.009999999776482582,
        0.009999999776482582,
        0.009999999776482582
      ],
      "translation": [
        0.0,
        0.0,
        0.0
      ]
    }
  ],
  "scene": 0,
  "scenes": [
    {
      "nodes": [
        13
      ]
    }
  ]
}
